<?xml version="1.0" encoding="UTF-8" standalone="no"?>
<svg
   aria-hidden="true"
   role="img"
   width="1em"
   height="1em"
   preserveAspectRatio="xMidYMid meet"
   viewBox="0 0 16 16"
   version="1.1"
   id="svg4"
   sodipodi:docname="lock.svg"
   inkscape:export-filename="Q:\cse481d\source\assets\images\lock.png"
   inkscape:export-xdpi="5052.6299"
   inkscape:export-ydpi="5052.6299"
   inkscape:version="1.1 (c68e22c387, 2021-05-23)"
   xmlns:inkscape="http://www.inkscape.org/namespaces/inkscape"
   xmlns:sodipodi="http://sodipodi.sourceforge.net/DTD/sodipodi-0.dtd"
   xmlns="http://www.w3.org/2000/svg"
   xmlns:svg="http://www.w3.org/2000/svg">
  <defs
     id="defs8" />
  <sodipodi:namedview
     id="namedview6"
     pagecolor="#ffffff"
     bordercolor="#666666"
     borderopacity="1.0"
     inkscape:pageshadow="2"
     inkscape:pageopacity="0.0"
     inkscape:pagecheckerboard="0"
     showgrid="false"
     inkscape:zoom="54.5625"
     inkscape:cx="-0.76975945"
     inkscape:cy="3.9037801"
     inkscape:window-width="3840"
     inkscape:window-height="2066"
     inkscape:window-x="-11"
     inkscape:window-y="49"
     inkscape:window-maximized="1"
     inkscape:current-layer="svg4" />
  <path
     fill="white"
     fill-rule="evenodd"
     d="M4 4v2h-.25A1.75 1.75 0 0 0 2 7.75v5.5c0 .966.784 1.75 1.75 1.75h8.5A1.75 1.75 0 0 0 14 13.25v-5.5A1.75 1.75 0 0 0 12.25 6H12V4a4 4 0 1 0-8 0zm6.5 2V4a2.5 2.5 0 0 0-5 0v2h5zM12 7.5h.25a.25.25 0 0 1 .25.25v5.5a.25.25 0 0 1-.25.25h-8.5a.25.25 0 0 1-.25-.25v-5.5a.25.25 0 0 1 .25-.25H12z"
     id="path2" />
</svg>
